HIERARCHY
ROOT Hips
{
	OFFSET 0.000000 0.000000 0.000000
	CHANNELS 6 Xposition Yposition Zposition Zrotation Yrotation Xrotation 
	JOINT LHipJoint
	{
		OFFSET 0.000000 0.000000 0.000000
		CHANNELS 3 Zrotation Yrotation Xrotation
		JOINT LeftUpLeg
		{
			OFFSET 1.363060 -1.794630 0.839290
			CHANNELS 3 Zrotation Yrotation Xrotation
			JOINT LeftLeg
			{
				OFFSET 2.448110 -6.726130 0.000000
				CHANNELS 3 Zrotation Yrotation Xrotation
				JOINT LeftFoot
				{
					OFFSET 2.562200 -7.039590 0.000000
					CHANNELS 3 Zrotation Yrotation Xrotation
					JOINT LeftToeBase
					{
						OFFSET 0.157640 -0.433110 2.322550
						CHANNELS 3 Zrotation Yrotation Xrotation
						End Site
						{
							OFFSET 0.000000 0.000000 0.000000
						}
					}
				}
			}
		}
	}
	JOINT RHipJoint
	{
		OFFSET 0.000000 0.000000 0.000000
		CHANNELS 3 Zrotation Yrotation Xrotation
		JOINT RightUpLeg
		{
			OFFSET -1.305520 -1.794630 0.839290
			CHANNELS 3 Zrotation Yrotation Xrotation
			JOINT RightLeg
			{
				OFFSET -2.542530 -6.985550 0.000000
				CHANNELS 3 Zrotation Yrotation Xrotation
				JOINT RightFoot
				{
					OFFSET -2.568260 -7.056230 0.000000
					CHANNELS 3 Zrotation Yrotation Xrotation
					JOINT RightToeBase
					{
						OFFSET -0.164730 -0.452590 2.363150
						CHANNELS 3 Zrotation Yrotation Xrotation
						End Site
						{
							OFFSET 0.000000 0.000000 0.000000
						}
					}
				}
			}
		}
	}
}
MOTION
Frames: 19
Frame Time: 0.008333
1.842444 22.048007 0.490845 24.849160 -65.442234 7.151406 -8.874458 0.008697 3.481458 -10.661719 -6.375959 -77.306214 1.670993 5.534036 77.667646 2.988509 14.710378 -6.533661 0.894400 -0.000000 -36.810300 14.260485 -0.567324 -1.261868 -10.960154 -5.985316 -31.743697 -6.238786 -6.230012 104.580114 -2.466819 -13.160567 -5.789854 -0.496400 -0.000001 -67.575200
1.750344 22.150325 0.478319 23.822140 -64.661259 9.296696 -8.708589 -0.202906 3.548930 -11.415482 -7.158414 -83.685810 1.940673 6.130371 80.263041 3.085238 14.552182 -8.419850 0.486300 0.000000 -34.457500 14.373340 -0.262338 -1.602657 -12.702368 -5.580982 -33.709580 -7.675015 -6.871741 111.633923 -2.675912 -14.720716 -9.784108 0.237100 0.000001 -63.390800
1.653779 22.236922 0.471358 22.873905 -63.988466 11.460120 -8.558247 -0.337886 3.669427 -12.152763 -8.210385 -90.180939 2.194833 6.727957 82.465123 3.174601 14.294494 -10.237381 0.095500 -0.000000 -32.357900 14.426417 0.049709 -1.855130 -14.912060 -4.956599 -35.443549 -9.287122 -7.477710 118.047076 -2.884619 -15.974023 -13.512552 1.090300 0.000000 -59.304500
1.550887 22.307962 0.470074 21.994763 -63.422422 13.641240 -8.433351 -0.386963 3.826571 -12.822377 -9.534893 -96.719829 2.418570 7.325887 84.293432 3.253952 13.923093 -12.028655 -0.283200 -0.000000 -30.592200 14.403403 0.351414 -1.998839 -17.649141 -4.094679 -36.912025 -11.021906 -8.037999 123.688289 -3.067942 -16.798102 -16.812431 1.941700 -0.000000 -55.641400
1.440167 22.364031 0.475186 21.121104 -62.962662 15.872889 -8.350201 -0.339831 4.005643 -13.356649 -11.098500 -103.237059 2.600787 7.926931 85.775698 3.317324 13.414516 -13.795159 -0.643100 -0.000001 -29.297300 14.286926 0.615245 -2.025624 -20.890177 -3.003086 -38.100252 -12.794315 -8.544892 128.447883 -3.192408 -17.085087 -19.579814 2.665300 -0.000000 -52.633300
1.320609 22.405876 0.486527 20.181628 -62.607077 18.163340 -8.326970 -0.185406 4.191192 -13.712005 -12.833324 -109.648721 2.733149 8.534490 86.939804 3.355625 12.746568 -15.494778 -0.964800 -0.000000 -28.667300 14.070163 0.808824 -1.946477 -24.519472 -1.730916 -39.010753 -14.497545 -8.996755 132.265588 -3.228255 -16.789470 -21.791149 3.169699 -0.000000 -50.418400
1.191619 22.435238 0.504049 19.103024 -62.334245 20.506576 -8.381283 0.079382 4.372171 -13.872893 -14.669906 -115.862659 2.811452 9.149499 87.813290 3.359063 11.910664 -17.052391 -1.221900 0.000000 -28.894199 13.759851 0.905054 -1.794126 -28.309314 -0.389482 -39.670559 -16.016323 -9.395669 135.140116 -3.164552 -15.970921 -23.503854 3.429899 0.000000 -48.970700
1.053097 22.453874 0.527313 17.854210 -62.095186 22.874702 -8.519778 0.439971 4.529470 -13.864542 -16.563910 -121.776391 2.832027 9.769767 88.413421 3.320280 10.921592 -18.384032 -1.391900 -0.000000 -30.069300 13.377417 0.898507 -1.621243 -31.955445 0.850192 -40.131156 -17.251548 -9.747091 137.129162 -3.018360 -14.802540 -24.822144 3.486400 0.000000 -48.142800
0.905321 22.463788 0.555363 16.458749 -61.834497 25.219483 -8.733832 0.873052 4.636677 -13.749528 -18.501836 -127.283817 2.789864 10.391305 88.745009 3.236488 9.816433 -19.420945 -1.465100 -0.000000 -32.109200 12.954332 0.815407 -1.481958 -35.145019 1.793422 -40.457178 -18.137338 -10.053911 138.332256 -2.828824 -13.522400 -25.856416 3.417900 -0.000000 -47.749500
0.748906 22.466842 0.586677 14.977611 -61.513628 27.475985 -9.005104 1.360052 4.673393 -13.610744 -20.488521 -132.285128 2.679580 11.008988 88.807697 3.110155 8.646525 -20.124285 -1.447800 0.000000 -34.762900 12.524917 0.702879 -1.410430 -37.625214 2.275329 -40.707853 -18.649805 -10.313173 138.873167 -2.640287 -12.355117 -26.698218 3.306800 -0.000000 -47.632200
0.584356 22.464324 0.619121 13.485494 -61.115808 29.577256 -9.312656 1.888044 4.631376 -13.534123 -22.526810 -136.691234 2.497207 11.615759 88.603362 2.946522 7.462755 -20.483050 -1.356800 -0.000000 -37.718800 12.118668 0.607530 -1.416136 -39.248603 2.202274 -40.932003 -18.800628 -10.519319 138.871911 -2.486025 -11.451599 -27.407234 3.214900 0.000000 -47.693200
0.412240 22.457404 0.650281 12.047104 -60.643136 31.469033 -9.636771 2.444119 4.514600 -13.593392 -24.603553 -140.428232 2.242929 12.199715 88.141302 2.751213 6.306213 -20.505618 -1.212900 0.000000 -40.705500 11.754422 0.560703 -1.494247 -39.983684 1.562759 -41.168122 -18.625362 -10.668817 138.428894 -2.381397 -10.870591 -28.010793 3.176000 0.000000 -47.879400
0.233315 22.446612 0.677761 10.706361 -60.109869 33.115734 -9.960343 3.011130 4.337859 -13.838656 -26.682847 -143.451822 1.923563 12.743522 87.442411 2.528693 5.203474 -20.211406 -1.035699 -0.000000 -43.539200 11.439220 0.574548 -1.635707 -39.894979 0.415519 -41.445175 -18.172392 -10.762038 137.621062 -2.326584 -10.598254 -28.509596 3.198400 -0.000000 -48.137800
0.048341 22.432199 0.699736 9.472847 -59.545160 34.515291 -10.271072 3.562779 4.125493 -14.282843 -28.690176 -145.759503 1.554329 13.226511 86.542219 2.281788 4.165107 -19.627458 -0.841200 -0.000000 -46.104900 11.169956 0.645650 -1.830071 -39.102916 -1.127611 -41.791220 -17.492666 -10.801117 136.502199 -2.313835 -10.585775 -28.884811 3.274500 0.000000 -48.409500
-0.142296 22.413680 0.714522 8.362801 -58.974115 35.663147 -10.555536 4.070146 3.906343 -14.917757 -30.541354 -147.373739 1.154886 13.626874 85.479659 2.012776 3.190427 -18.783150 -0.642400 0.000000 -48.354000 10.940422 0.760988 -2.068038 -37.770526 -2.938727 -42.209782 -16.638685 -10.793360 135.105073 -2.332562 -10.771070 -29.118834 3.389300 -0.000000 -48.595900
-0.337985 22.390960 0.721322 7.361543 -58.429087 36.582580 -10.803936 4.499203 3.709738 -15.690885 -32.128597 -148.368203 0.749224 13.928638 84.300707 1.724192 2.270622 -17.711501 -0.450100 -0.000000 -50.268100 10.741562 0.904916 -2.337784 -36.057504 -4.881523 -42.701996 -15.660387 -10.745326 133.454540 -2.374768 -11.105402 -29.203357 3.529300 0.000000 -48.607399
-0.538833 22.363172 0.719652 6.479987 -57.933873 37.283311 -11.004918 4.824298 3.561410 -16.535822 -33.362935 -148.830524 0.358098 14.123712 83.044468 1.421256 1.397701 -16.452336 -0.274300 0.000000 -51.857800 10.569190 1.063969 -2.622928 -34.128081 -6.842505 -43.252306 -14.605560 -10.666446 131.568509 -2.434874 -11.550914 -29.152790 3.685200 0.000000 -48.343700
-0.744205 22.330237 0.710356 5.636726 -57.531574 37.854785 -11.160248 5.008274 3.476569 -17.317696 -34.107695 -148.911622 0.003538 14.214401 81.754230 1.107767 0.557863 -15.036975 -0.122800 0.000000 -53.192000 10.412447 1.225323 -2.908623 -32.060512 -8.685610 -43.872750 -13.509781 -10.554435 129.476179 -2.511579 -12.092220 -28.998530 3.855900 -0.000000 -47.868900
-0.954936 22.291433 0.693233 4.901129 -57.223722 38.260850 -11.256442 5.055497 3.465550 -17.986533 -34.358540 -148.676034 -0.309400 14.206662 80.443649 0.795978 -0.241427 -13.525708 -0.004900 -0.000000 -54.319500 10.280449 1.385385 -3.170857 -30.005378 -10.363600 -44.528601 -12.411566 -10.422302 127.195740 -2.600104 -12.692054 -28.797765 4.038699 0.000000 -47.092000
